<svg width="22" height="15" viewBox="0 0 22 15" fill="none" xmlns="http://www.w3.org/2000/svg">
<path fill-rule="evenodd" clip-rule="evenodd" d="M19.4879 5.25C19.4635 5.0689 19.4369 4.88801 19.4081 4.70739L19.344 4.30595C19.1187 2.8946 17.9013 1.85612 16.4721 1.85612L8.35515 1.85612C8.05411 0.785162 7.07032 0 5.90314 0H3.61158C2.12875 0 0.87976 1.10798 0.702965 2.58023L0.430479 4.84935C0.137831 7.28637 0.213359 9.75355 0.654529 12.1681C0.890546 13.4599 1.97088 14.4281 3.28067 14.5218L4.79468 14.6302C8.2604 14.8781 11.7394 14.8781 15.2051 14.6302L16.843 14.513C17.6516 14.4551 18.3675 14.0444 18.8287 13.426C19.4424 12.8374 19.9253 12.1184 20.2377 11.315L21.4872 8.10212C22.0208 6.72983 21.0085 5.25 19.5361 5.25H19.4879ZM3.61158 1.5C2.888 1.5 2.27854 2.04066 2.19227 2.75907L1.91978 5.02819C1.64506 7.31589 1.71596 9.63189 2.1301 11.8985C2.24313 12.5171 2.76048 12.9808 3.38771 13.0257L3.47372 13.0318L5.8058 7.00727C6.21578 5.94815 7.23466 5.25 8.37037 5.25H17.9734C17.9586 5.14785 17.9431 5.04579 17.9268 4.94381L17.8627 4.54238C17.7537 3.85897 17.1642 3.35612 16.4721 3.35612L7.75926 3.35612C7.31226 3.35612 6.94991 2.99375 6.94991 2.54677C6.94991 1.96865 6.48126 1.5 5.90314 1.5H3.61158Z" fill="white"/>
</svg>
