<svg width="18" height="18" viewBox="0 0 18 18" fill="none" xmlns="http://www.w3.org/2000/svg">
<path d="M4.74933 1C4.74933 0.585786 4.41354 0.25 3.99933 0.25C3.58511 0.25 3.24933 0.585786 3.24933 1V2.81643C1.75626 3.02751 0.576705 4.20845 0.377028 5.71484L0.290477 6.36779C0.275803 6.47849 0.261771 6.58926 0.248383 6.70008C0.212866 6.99405 0.444471 7.25 0.740578 7.25H17.258C17.5541 7.25 17.7857 6.99405 17.7502 6.70008C17.7368 6.58926 17.7228 6.47849 17.7081 6.36779L17.6216 5.71484C17.4219 4.20847 16.2424 3.02754 14.7493 2.81644V1C14.7493 0.585786 14.4135 0.25 13.9993 0.25C13.5851 0.25 13.2493 0.585786 13.2493 1V2.66763C10.4216 2.4158 7.57706 2.4158 4.74933 2.66763V1Z" fill="white"/>
<path d="M17.9439 9.22555C17.9351 8.95912 17.715 8.75 17.4484 8.75H0.550195C0.283623 8.75 0.0634577 8.95912 0.054703 9.22555C-0.00469552 11.0332 0.105106 12.8446 0.38384 14.6359C0.59485 15.9919 1.69651 17.0335 3.06225 17.1681L4.25525 17.2858C7.4103 17.5969 10.5883 17.5969 13.7433 17.2858L14.9363 17.1681C16.3021 17.0335 17.4037 15.9919 17.6148 14.6359C17.8935 12.8446 18.0033 11.0332 17.9439 9.22555Z" fill="white"/>
</svg>
