<svg width="24" height="22" viewBox="0 0 24 22" fill="none" xmlns="http://www.w3.org/2000/svg">
<g clip-path="url(#clip0_1401:10038)">
<path d="M16.4545 9.48374C14.1736 4.49762 12.9872 2.60357 9.26083 2.68283C7.93334 2.71026 8.25146 1.70532 7.23909 2.08636C6.22872 2.46741 7.09604 3.02526 6.06166 3.88795C3.1586 6.30937 3.4257 8.54891 4.77219 13.8866C5.33939 16.1353 3.40469 16.245 4.16997 18.4236C4.72917 20.0128 8.85068 20.6784 13.1983 19.0404C17.5469 17.4014 20.2869 14.1488 19.7277 12.5595C18.9624 10.38 17.4158 11.5831 16.4545 9.48374ZM12.7271 17.6971C8.84367 19.1603 5.65251 18.3006 5.51746 17.9176C5.28537 17.2571 6.77092 15.0562 11.2105 13.3826C15.6502 11.7091 18.1281 12.3299 18.3872 13.0666C18.5402 13.5025 16.6115 16.2328 12.7271 17.6971ZM11.4786 14.1467C9.4489 14.9119 8.03838 15.7868 7.12405 16.5743C7.76728 17.1677 8.97172 17.312 10.1712 16.8598C11.6987 16.2857 12.6381 14.9637 12.2669 13.909L12.2509 13.8724C11.9998 13.9557 11.7427 14.0461 11.4786 14.1467Z" fill="#295011"/>
</g>
<defs>
<clipPath id="clip0_1401:10038">
<rect width="24" height="22" fill="white"/>
</clipPath>
</defs>
</svg>
