<svg width="24" height="24" viewBox="0 0 24 24" fill="none" xmlns="http://www.w3.org/2000/svg">
<path fill-rule="evenodd" clip-rule="evenodd" d="M10.2 19.2C10.2 20.1941 11.0059 21 12 21C12.9941 21 13.8 20.1941 13.8 19.2V18.0391C14.219 17.9144 14.6197 17.7473 14.9972 17.5428L15.8184 18.364C16.5213 19.0669 17.661 19.0669 18.364 18.364C19.0669 17.661 19.0669 16.5213 18.364 15.8184L17.5428 14.9972C17.7473 14.6197 17.9144 14.219 18.0391 13.8H19.2C20.1941 13.8 21 12.9941 21 12C21 11.0059 20.1941 10.2 19.2 10.2H18.0391C17.9144 9.78102 17.7473 9.3803 17.5428 9.00282L18.364 8.18163C19.0669 7.47869 19.0669 6.33899 18.364 5.63604C17.661 4.9331 16.5213 4.9331 15.8184 5.63604L14.9972 6.45724C14.6197 6.2527 14.219 6.08559 13.8 5.96089V4.8C13.8 3.80589 12.9941 3 12 3C11.0059 3 10.2 3.80589 10.2 4.8V5.96089C9.78101 6.08559 9.3803 6.2527 9.00282 6.45724L8.18163 5.63605C7.47869 4.9331 6.33899 4.9331 5.63604 5.63605C4.9331 6.33899 4.9331 7.47869 5.63604 8.18163L6.45724 9.00283C6.2527 9.3803 6.08559 9.78102 5.96089 10.2H4.8C3.80589 10.2 3 11.0059 3 12C3 12.9941 3.80589 13.8 4.8 13.8H5.96089C6.08559 14.219 6.2527 14.6197 6.45724 14.9972L5.63603 15.8184C4.93309 16.5213 4.93309 17.661 5.63603 18.364C6.33897 19.0669 7.47867 19.0669 8.18161 18.364L9.00282 17.5428C9.38029 17.7473 9.78101 17.9144 10.2 18.0391V19.2ZM12 14.7C13.4912 14.7 14.7 13.4912 14.7 12C14.7 10.5088 13.4912 9.29999 12 9.29999C10.5088 9.29999 9.29999 10.5088 9.29999 12C9.29999 13.4912 10.5088 14.7 12 14.7Z" fill="#295011"/>
</svg>
