<svg width="32" height="26" viewBox="0 0 32 26" fill="none" xmlns="http://www.w3.org/2000/svg">
<path d="M23.916 17.7499C22.8077 17.7499 21.8709 17.3673 21.1056 16.602C20.3403 15.8367 19.9577 14.8999 19.9577 13.7916C19.9577 12.6833 20.3403 11.7464 21.1056 10.9812C21.8709 10.2159 22.8077 9.83325 23.916 9.83325C25.0244 9.83325 25.9612 10.2159 26.7264 10.9812C27.4917 11.7464 27.8744 12.6833 27.8744 13.7916C27.8744 14.8999 27.4917 15.8367 26.7264 16.602C25.9612 17.3673 25.0244 17.7499 23.916 17.7499ZM17.5827 25.6666C17.1341 25.6666 16.7583 25.5146 16.4554 25.2106C16.1514 24.9076 15.9994 24.5319 15.9994 24.0832V23.4499C15.9994 22.8166 16.164 22.2297 16.4934 21.6893C16.8237 21.1478 17.2924 20.7582 17.8994 20.5208C18.8493 20.1249 19.8326 19.8283 20.8491 19.6309C21.8645 19.4325 22.8869 19.3333 23.916 19.3333C24.9452 19.3333 25.968 19.4325 26.9845 19.6309C28 19.8283 28.9827 20.1249 29.9327 20.5208C30.5396 20.7582 31.0083 21.1478 31.3387 21.6893C31.668 22.2297 31.8327 22.8166 31.8327 23.4499V24.0832C31.8327 24.5319 31.6807 24.9076 31.3767 25.2106C31.0737 25.5146 30.698 25.6666 30.2494 25.6666H17.5827ZM12.8327 12.9999C11.091 12.9999 9.60004 12.3798 8.35977 11.1395C7.11949 9.89922 6.49935 8.40825 6.49935 6.66658C6.49935 4.92492 7.11949 3.43395 8.35977 2.19367C9.60004 0.953391 11.091 0.333252 12.8327 0.333252C14.5744 0.333252 16.0653 0.953391 17.3056 2.19367C18.5459 3.43395 19.166 4.92492 19.166 6.66658C19.166 8.40825 18.5459 9.89922 17.3056 11.1395C16.0653 12.3798 14.5744 12.9999 12.8327 12.9999ZM1.74935 25.6666C1.30074 25.6666 0.92496 25.5146 0.622016 25.2106C0.318016 24.9076 0.166016 24.5319 0.166016 24.0832V20.9166C0.166016 20.2305 0.403516 19.5512 0.878516 18.8788C1.35352 18.2054 2.05282 17.618 2.97643 17.1166C4.40143 16.3513 5.95838 15.738 7.64727 15.2767C9.33615 14.8144 11.0646 14.5833 12.8327 14.5833C13.5452 14.5833 14.3041 14.636 15.1095 14.7416C15.9138 14.8471 16.7382 15.0055 17.5827 15.2166V17.2749C17.2132 17.4069 16.8966 17.5388 16.6327 17.6707C16.3688 17.8027 16.0917 17.9478 15.8014 18.1062C14.825 18.6603 14.0862 19.386 13.5848 20.2833C13.0834 21.1805 12.8327 21.9194 12.8327 22.4999V25.6666H1.74935Z" fill="#464F54"/>
</svg>
