<svg width="24" height="24" viewBox="0 0 24 24" fill="none" xmlns="http://www.w3.org/2000/svg">
<path d="M12.75 6.75H11.25V11.25H6.75V12.75H11.25V17.25H12.75V12.75H17.25V11.25H12.75V6.75Z" fill="url(#paint0_linear_691_1372)"/>
<path d="M12 1.5C6.20175 1.5 1.5 6.20175 1.5 12C1.5 17.7983 6.20175 22.5 12 22.5C17.7983 22.5 22.5 17.7983 22.5 12C22.5 6.20175 17.7983 1.5 12 1.5ZM12 21C7.03725 21 3 16.9628 3 12C3 7.03725 7.03725 3 12 3C16.9628 3 21 7.03725 21 12C21 16.9628 16.9628 21 12 21Z" fill="url(#paint1_linear_691_1372)"/>
<defs>
<linearGradient id="paint0_linear_691_1372" x1="11.825" y1="3.9527" x2="12.163" y2="17.2459" gradientUnits="userSpaceOnUse">
<stop stop-color="#008300"/>
<stop offset="1" stop-color="#005700"/>
</linearGradient>
<linearGradient id="paint1_linear_691_1372" x1="11.65" y1="-4.09459" x2="12.326" y2="22.4917" gradientUnits="userSpaceOnUse">
<stop stop-color="#008300"/>
<stop offset="1" stop-color="#005700"/>
</linearGradient>
</defs>
</svg>
