<svg width="21" height="21" viewBox="0 0 21 21" fill="none" xmlns="http://www.w3.org/2000/svg">
<path d="M4.00039 0.199951C4.43754 0.199951 4.84739 0.316819 5.20039 0.521035C5.55341 0.316819 5.96324 0.199951 6.40039 0.199951C7.72587 0.199951 8.80039 1.27447 8.80039 2.59995V3.79995H9.40039C9.73176 3.79995 10.0004 4.06858 10.0004 4.39995V9.79995C10.0004 11.1255 8.92587 12.2 7.60039 12.2H2.80039C2.38413 12.2 1.99262 12.094 1.65137 11.9075C0.905987 11.5003 0.400391 10.7092 0.400391 9.79995V4.39995C0.400391 4.06858 0.669023 3.79995 1.00039 3.79995H1.60039V2.59995C1.60039 1.27447 2.67491 0.199951 4.00039 0.199951ZM2.80039 3.79995H5.20039V2.59995C5.20039 1.93722 4.66313 1.39995 4.00039 1.39995C3.33765 1.39995 2.80039 1.93722 2.80039 2.59995V3.79995ZM6.40039 2.59995V3.79995H7.60039V2.59995C7.60039 1.93722 7.06313 1.39995 6.40039 1.39995C6.2969 1.39995 6.19649 1.41306 6.10069 1.43768C6.29165 1.78203 6.40039 2.1783 6.40039 2.59995ZM10.0004 2.70237V2.59995H13.901C15.0608 2.59995 16.001 3.54015 16.001 4.69995V6.20002L17.0593 6.19988C17.7411 6.19978 18.3645 6.58499 18.6694 7.19489L20.611 11.0781C20.7361 11.328 20.8011 11.6037 20.8011 11.883V16.3998C20.8011 17.3939 19.9952 18.1998 19.0011 18.1998H17.141C16.8631 19.5691 15.6524 20.6 14.201 20.6C12.7496 20.6 11.5389 19.5693 11.261 18.1999H9.94097C9.663 19.5693 8.45235 20.6 7.00098 20.6C5.5496 20.6 4.33895 19.5693 4.06099 18.1999H3.75137C2.59157 18.1999 1.65137 17.2598 1.65137 16.0999V13.2126C2.01221 13.3342 2.39861 13.4 2.80039 13.4H7.60039C9.58861 13.4 11.2004 11.7882 11.2004 9.79995V4.39995C11.2004 3.61622 10.6995 2.94948 10.0004 2.70237ZM16.001 7.40002V10.9999H19.2303L17.5961 7.73155C17.4945 7.52825 17.2867 7.39984 17.0594 7.39988L16.001 7.40002ZM7.00098 15.8C6.00686 15.8 5.20098 16.6059 5.20098 17.6C5.20098 18.594 6.00686 19.4 7.00098 19.4C7.99509 19.4 8.80098 18.594 8.80098 17.6C8.80098 16.6059 7.99509 15.8 7.00098 15.8ZM12.401 17.6C12.401 18.594 13.2069 19.4 14.201 19.4C15.1951 19.4 16.001 18.594 16.001 17.6C16.001 16.6059 15.1951 15.8 14.201 15.8C13.2069 15.8 12.401 16.6059 12.401 17.6Z" fill="white"/>
</svg>
