<svg width="14" height="19" viewBox="0 0 14 19" fill="none" xmlns="http://www.w3.org/2000/svg">
<path d="M1.187 6H12.812L12.117 17.125C12.0852 17.6328 11.8611 18.1094 11.4902 18.4577C11.1194 18.8061 10.6298 19 10.121 19H3.879C3.37022 19 2.88058 18.8061 2.50975 18.4577C2.13893 18.1094 1.9148 17.6328 1.883 17.125L1.187 6ZM14 3V5H0V3H3V2C3 1.46957 3.21071 0.960859 3.58579 0.585786C3.96086 0.210714 4.46957 0 5 0H9C9.53043 0 10.0391 0.210714 10.4142 0.585786C10.7893 0.960859 11 1.46957 11 2V3H14ZM5 3H9V2H5V3Z" fill="white"/>
</svg>
