<svg width="18" height="18" viewBox="0 0 18 18" fill="none" xmlns="http://www.w3.org/2000/svg">
<path d="M6.06802 0.228062C4.70453 0.075672 3.29549 0.075672 1.932 0.228062C1.05481 0.3261 0.345511 1.01685 0.242068 1.90129C0.0789785 3.29571 0.0789785 4.70438 0.242068 6.0988C0.345511 6.98323 1.05481 7.67399 1.932 7.77203C3.29549 7.92442 4.70453 7.92442 6.06802 7.77203C6.9452 7.67399 7.65451 6.98323 7.75795 6.0988C7.92104 4.70438 7.92104 3.29571 7.75795 1.90129C7.65451 1.01685 6.9452 0.3261 6.06802 0.228062Z" fill="white"/>
<path d="M6.06802 10.2281C4.70453 10.0757 3.29549 10.0757 1.932 10.2281C1.05481 10.3261 0.345511 11.0169 0.242068 11.9013C0.0789785 13.2957 0.0789785 14.7044 0.242068 16.0988C0.345511 16.9832 1.05481 17.674 1.932 17.772C3.29549 17.9244 4.70453 17.9244 6.06802 17.772C6.9452 17.674 7.65451 16.9832 7.75795 16.0988C7.92104 14.7044 7.92104 13.2957 7.75795 11.9013C7.65451 11.0169 6.9452 10.3261 6.06802 10.2281Z" fill="white"/>
<path d="M16.068 0.228062C14.7045 0.075672 13.2955 0.075672 11.932 0.228062C11.0548 0.3261 10.3455 1.01685 10.2421 1.90129C10.079 3.29571 10.079 4.70438 10.2421 6.0988C10.3455 6.98323 11.0548 7.67399 11.932 7.77203C13.2955 7.92442 14.7045 7.92442 16.068 7.77203C16.9452 7.67399 17.6545 6.98323 17.758 6.0988C17.9211 4.70438 17.9211 3.29571 17.758 1.90129C17.6545 1.01685 16.9452 0.3261 16.068 0.228062Z" fill="white"/>
<path d="M16.068 10.2281C14.7045 10.0757 13.2955 10.0757 11.932 10.2281C11.0548 10.3261 10.3455 11.0169 10.2421 11.9013C10.079 13.2957 10.079 14.7044 10.2421 16.0988C10.3455 16.9832 11.0548 17.674 11.932 17.772C13.2955 17.9244 14.7045 17.9244 16.068 17.772C16.9452 17.674 17.6545 16.9832 17.758 16.0988C17.9211 14.7044 17.9211 13.2957 17.758 11.9013C17.6545 11.0169 16.9452 10.3261 16.068 10.2281Z" fill="white"/>
</svg>
