<svg width="18" height="18" viewBox="0 0 18 18" fill="none" xmlns="http://www.w3.org/2000/svg">
<path d="M6.06801 0.228062C4.70451 0.075672 3.29547 0.075672 1.93198 0.228062C1.0548 0.3261 0.345496 1.01685 0.242053 1.90129C0.0789632 3.29571 0.0789633 4.70438 0.242053 6.0988C0.345496 6.98323 1.0548 7.67399 1.93198 7.77203C3.29547 7.92442 4.70451 7.92442 6.06801 7.77203C6.94519 7.67399 7.65449 6.98323 7.75793 6.0988C7.92102 4.70438 7.92102 3.29571 7.75793 1.90129C7.65449 1.01685 6.94519 0.3261 6.06801 0.228062Z" fill="#295011"/>
<path d="M6.06801 10.2281C4.70451 10.0757 3.29547 10.0757 1.93198 10.2281C1.0548 10.3261 0.345496 11.0169 0.242053 11.9013C0.0789632 13.2957 0.0789633 14.7044 0.242053 16.0988C0.345496 16.9832 1.0548 17.674 1.93198 17.772C3.29547 17.9244 4.70451 17.9244 6.06801 17.772C6.94519 17.674 7.65449 16.9832 7.75793 16.0988C7.92102 14.7044 7.92102 13.2957 7.75793 11.9013C7.65449 11.0169 6.94519 10.3261 6.06801 10.2281Z" fill="#295011"/>
<path d="M16.068 0.228062C14.7045 0.075672 13.2955 0.075672 11.932 0.228062C11.0548 0.3261 10.3455 1.01685 10.2421 1.90129C10.079 3.29571 10.079 4.70438 10.2421 6.0988C10.3455 6.98323 11.0548 7.67399 11.932 7.77203C13.2955 7.92442 14.7045 7.92442 16.068 7.77203C16.9452 7.67399 17.6545 6.98323 17.7579 6.0988C17.921 4.70438 17.921 3.29571 17.7579 1.90129C17.6545 1.01685 16.9452 0.3261 16.068 0.228062Z" fill="#295011"/>
<path d="M16.068 10.2281C14.7045 10.0757 13.2955 10.0757 11.932 10.2281C11.0548 10.3261 10.3455 11.0169 10.2421 11.9013C10.079 13.2957 10.079 14.7044 10.2421 16.0988C10.3455 16.9832 11.0548 17.674 11.932 17.772C13.2955 17.9244 14.7045 17.9244 16.068 17.772C16.9452 17.674 17.6545 16.9832 17.7579 16.0988C17.921 14.7044 17.921 13.2957 17.7579 11.9013C17.6545 11.0169 16.9452 10.3261 16.068 10.2281Z" fill="#295011"/>
</svg>
