<svg width="17" height="21" viewBox="0 0 17 21" fill="none" xmlns="http://www.w3.org/2000/svg">
<path fill-rule="evenodd" clip-rule="evenodd" d="M0.273543 7.87739C0.617182 3.70845 4.10097 0.5 8.28406 0.5H8.71599C12.8991 0.5 16.3829 3.70845 16.7265 7.87739C16.9115 10.122 16.2182 12.3508 14.7925 14.0943L9.99946 19.9561C9.22449 20.9039 7.77556 20.9039 7.00059 19.9561L2.20752 14.0943C0.781866 12.3508 0.0885246 10.122 0.273543 7.87739ZM12.0303 7.53033C12.3232 7.23744 12.3232 6.76256 12.0303 6.46967C11.7374 6.17678 11.2626 6.17678 10.9697 6.46967L8 9.43934L6.53033 7.96967C6.23744 7.67678 5.76256 7.67678 5.46967 7.96967C5.17678 8.26256 5.17678 8.73744 5.46967 9.03033L7.46967 11.0303C7.76256 11.3232 8.23744 11.3232 8.53033 11.0303L12.0303 7.53033Z" fill="#295011"/>
</svg>
