<svg width="8" height="8" viewBox="0 0 8 8" fill="none" xmlns="http://www.w3.org/2000/svg">
<path d="M5.58816 7.82787C5.76765 7.82787 5.94714 7.75852 6.08176 7.62391L7.10976 6.59591C8.29685 5.40881 8.29685 3.47928 7.10976 2.29626L5.70646 0.892963C5.13127 0.317773 4.36843 0.00366211 3.55664 0.00366211C2.74484 0.00366211 1.982 0.321852 1.40682 0.892963L0.378816 1.92096C0.105499 2.19428 0.105499 2.63893 0.378816 2.91225L5.09456 7.62799C5.22918 7.75852 5.40867 7.82787 5.58816 7.82787ZM2.3981 1.87609C2.70813 1.56606 3.12015 1.39472 3.56072 1.39472C3.99721 1.39472 4.4133 1.56606 4.72333 1.87609L6.12663 3.27939C6.76709 3.91985 6.76709 4.96008 6.12663 5.60054L5.58816 6.13902L1.85962 2.41048L2.3981 1.87609Z" fill="#464F54"/>
</svg>
