<svg width="24" height="24" viewBox="0 0 24 24" fill="none" xmlns="http://www.w3.org/2000/svg">
<path d="M22.7826 21.5375H2.43478V1.24522C2.43478 0.572875 1.88974 0.027832 1.21739 0.027832C0.545043 0.027832 0 0.572875 0 1.24522V22.7549C0 23.4273 0.545043 23.9723 1.21739 23.9723H22.7826C23.455 23.9723 24 23.4273 24 22.7549C24 22.0826 23.455 21.5375 22.7826 21.5375Z" fill="white"/>
<path d="M5.25611 16.3446C5.58564 16.3446 5.91406 16.2116 6.1542 15.9495L9.54508 12.2471L15.6104 14.911C16.1321 15.1401 16.7433 14.9767 17.0808 14.5174L20.8017 9.45561L21.1143 11.6345C21.2014 12.2414 21.722 12.6793 22.3178 12.6792C22.3753 12.6792 22.4336 12.6751 22.4921 12.6667C23.1577 12.5712 23.6198 11.9543 23.5244 11.2888L22.7852 6.13498C22.6897 5.46945 22.0726 5.00754 21.4073 5.10277L16.2535 5.84197C15.588 5.93741 15.1258 6.55432 15.2213 7.21985C15.3168 7.88538 15.9337 8.34757 16.5992 8.25206L18.9081 7.92093L15.6967 12.2896L9.72581 9.66715C9.24853 9.45755 8.69068 9.57512 8.33855 9.95954L4.35872 14.3049C3.9046 14.8007 3.93841 15.5708 4.4342 16.0249C4.66787 16.239 4.96248 16.3446 5.25611 16.3446Z" fill="white"/>
</svg>
