<svg width="18" height="20" viewBox="0 0 18 20" fill="none" xmlns="http://www.w3.org/2000/svg">
<path fill-rule="evenodd" clip-rule="evenodd" d="M3.25 3.5C3.25 1.70507 4.70507 0.25 6.5 0.25C7.50522 0.25 8.40385 0.706367 9 1.42322C9.59615 0.706367 10.4948 0.25 11.5 0.25C13.2949 0.25 14.75 1.70507 14.75 3.5C14.75 4.25426 14.4931 4.94852 14.0619 5.5H15C16.3807 5.5 17.5 6.61929 17.5 8V9.25C17.5 9.66421 17.1642 10 16.75 10H10.05C9.88431 10 9.75 9.86569 9.75 9.7V6.23909C9.46705 6.05794 9.21404 5.83415 9 5.57678C8.78597 5.83415 8.53295 6.05794 8.25 6.23909V9.7C8.25 9.86569 8.11569 10 7.95 10H1.25C0.835786 10 0.5 9.66421 0.5 9.25V8C0.5 6.61929 1.61929 5.5 3 5.5H3.93808C3.50694 4.94852 3.25 4.25426 3.25 3.5ZM8.25 3.5C8.25 2.5335 7.4665 1.75 6.5 1.75C5.5335 1.75 4.75 2.5335 4.75 3.5C4.75 4.4665 5.5335 5.25 6.5 5.25C7.4665 5.25 8.25 4.4665 8.25 3.5ZM9.75 3.5C9.75 4.4665 10.5335 5.25 11.5 5.25C12.4665 5.25 13.25 4.4665 13.25 3.5C13.25 2.5335 12.4665 1.75 11.5 1.75C10.5335 1.75 9.75 2.5335 9.75 3.5Z" fill="white"/>
<path d="M8.25 11.65C8.25 11.4843 8.11569 11.35 7.95 11.35H2.64901C2.24336 11.35 1.89672 11.6423 1.82821 12.0421C1.60616 13.3379 1.60616 14.6621 1.82821 15.9579L2.05252 17.2669C2.20356 18.1483 2.91941 18.8235 3.80812 18.9229L4.87325 19.0419C5.89415 19.156 6.91861 19.2276 7.94397 19.2568C8.11196 19.2616 8.25 19.1262 8.25 18.9581L8.25 11.65Z" fill="white"/>
<path d="M10.056 19.2568C9.88804 19.2616 9.75 19.1262 9.75 18.9581L9.75 11.65C9.75 11.4843 9.88431 11.35 10.05 11.35H15.351C15.7566 11.35 16.1033 11.6423 16.1718 12.0421C16.3938 13.3379 16.3938 14.6621 16.1718 15.9579L15.9475 17.2669C15.7964 18.1483 15.0806 18.8235 14.1919 18.9229L13.1268 19.0419C12.1058 19.156 11.0814 19.2276 10.056 19.2568Z" fill="white"/>
</svg>
