<svg width="200" height="212" viewBox="0 0 200 212" fill="none" xmlns="http://www.w3.org/2000/svg">
<g clip-path="url(#clip0_297_3517)" filter="url(#filter0_d_297_3517)">
<path d="M98.3434 91.5426C82.7911 68.9964 79.9043 66.6824 79.9043 58.3964C79.9043 47.0462 89.1053 37.8452 100.455 37.8452C111.806 37.8452 121.007 47.0462 121.007 58.3964C121.007 66.6824 118.12 68.9964 102.568 91.5426C101.547 93.0169 99.3639 93.0168 98.3434 91.5426Z" fill="url(#paint0_linear_297_3517)"/>
<path d="M90.8552 58.4221V63.8537C90.8552 65.0574 91.831 66.0333 93.0348 66.0333H93.3562C93.6447 67.4545 94.9012 68.5242 96.4076 68.5242C97.914 68.5242 99.1705 67.4545 99.459 66.0333H100.829C101.118 67.4545 102.374 68.5242 103.881 68.5242C105.387 68.5242 106.644 67.4544 106.932 66.0331H108.863C109.894 66.0331 110.731 65.1967 110.731 64.1649V59.4769C110.731 59.1869 110.663 58.9009 110.534 58.6414L108.518 54.6111C108.202 53.978 107.555 53.5782 106.847 53.5783L105.749 53.5785V52.0215C105.749 50.8178 104.773 49.8419 103.569 49.8419H100.964C101.236 50.2459 101.39 50.7285 101.39 51.2344V55.9224C101.39 56.8659 100.856 57.7284 100.013 58.1504L96.2761 60.0186C95.5748 60.3692 94.7494 60.3692 94.0481 60.0186L90.8552 58.4221ZM105.749 54.824L106.847 54.8238C107.083 54.8238 107.299 54.957 107.404 55.168L109.1 58.5603H105.749V54.824ZM96.4076 63.5423C97.4394 63.5423 98.2758 64.3788 98.2758 65.4105C98.2758 66.4423 97.4394 67.2787 96.4076 67.2787C95.3758 67.2787 94.5394 66.4423 94.5394 65.4105C94.5394 64.3788 95.3758 63.5423 96.4076 63.5423ZM102.012 65.4105C102.012 64.3788 102.849 63.5423 103.881 63.5423C104.912 63.5423 105.749 64.3788 105.749 65.4105C105.749 66.4423 104.912 67.2787 103.881 67.2787C102.849 67.2787 102.012 66.4423 102.012 65.4105ZM90.1797 51.2346V55.9225C90.1797 56.3943 90.4462 56.8255 90.8682 57.0365L94.6046 58.9047C94.9553 59.0801 95.368 59.0801 95.7186 58.9047L99.4551 57.0365C99.877 56.8255 100.144 56.3943 100.144 55.9225V51.2346C100.144 50.7628 99.877 50.3316 99.4551 50.1206L95.7186 48.2523C95.368 48.077 94.9553 48.077 94.6046 48.2523L90.8682 50.1206C90.4462 50.3316 90.1797 50.7628 90.1797 51.2346ZM92.2902 51.1366L95.1617 52.3491L98.0331 51.1366C98.35 51.0028 98.7153 51.1512 98.849 51.4681C98.9828 51.7849 98.8344 52.1502 98.5176 52.284L95.7844 53.4381L95.7844 56.6923C95.7844 57.0362 95.5056 57.315 95.1616 57.315C94.8177 57.315 94.5389 57.0362 94.5389 56.6922L94.5389 53.4381L91.8057 52.284C91.4888 52.1502 91.3404 51.7849 91.4742 51.4681C91.608 51.1512 91.9733 51.0028 92.2902 51.1366Z" fill="#F7F7F4"/>
<path d="M90.8027 51.0876L92.671 50.4648H97.0302L99.5211 51.0876V55.4468L95.7847 57.315H93.9165L90.8027 53.5786V51.0876Z" fill="#F7F7F4"/>
<path d="M93.9652 56.1488H93.1552C92.9608 56.1488 92.7698 56.0976 92.6015 56.0004C92.4331 55.9032 92.2933 55.7634 92.1962 55.5951C92.099 55.4267 92.0478 55.2357 92.0479 55.0414C92.0479 54.847 92.0991 54.656 92.1963 54.4877L92.8188 53.4095L92.8109 53.4116C92.7683 53.423 92.7239 53.4259 92.6802 53.4201C92.6365 53.4144 92.5943 53.4001 92.5562 53.378C92.518 53.356 92.4845 53.3266 92.4577 53.2916C92.4308 53.2567 92.4111 53.2167 92.3997 53.1741C92.3883 53.1316 92.3854 53.0871 92.3912 53.0434C92.3969 52.9997 92.4112 52.9576 92.4333 52.9194C92.4553 52.8812 92.4847 52.8477 92.5197 52.8209C92.5546 52.794 92.5946 52.7743 92.6372 52.7629L93.4269 52.5513C93.508 52.5288 93.5948 52.539 93.6684 52.5798C93.673 52.5822 93.6781 52.582 93.6827 52.5846C93.6883 52.5879 93.6913 52.5934 93.6966 52.5969C93.7667 52.6392 93.8175 52.7073 93.8381 52.7866L93.8391 52.7885L94.051 53.5792C94.0625 53.6218 94.0655 53.6663 94.0598 53.7101C94.0541 53.7539 94.0398 53.7961 94.0178 53.8344C93.9958 53.8726 93.9664 53.9062 93.9314 53.9331C93.8964 53.96 93.8564 53.9797 93.8137 53.9911C93.7711 54.0026 93.7266 54.0055 93.6828 53.9997C93.639 53.9939 93.5968 53.9795 93.5586 53.9574C93.5204 53.9353 93.4869 53.9058 93.4601 53.8707C93.4333 53.8357 93.4137 53.7956 93.4023 53.753L93.4002 53.7452L92.7777 54.8235C92.7395 54.8897 92.7193 54.9649 92.7193 55.0414C92.7193 55.1179 92.7395 55.193 92.7777 55.2593C92.816 55.3256 92.871 55.3806 92.9373 55.4188C93.0035 55.4571 93.0787 55.4772 93.1552 55.4772H93.9652C94.0093 55.4771 94.0531 55.4856 94.094 55.5025C94.1348 55.5193 94.1719 55.544 94.2032 55.5752C94.2345 55.6064 94.2593 55.6434 94.2763 55.6842C94.2932 55.7251 94.3019 55.7688 94.3019 55.813C94.3019 55.8572 94.2932 55.9009 94.2763 55.9417C94.2593 55.9825 94.2345 56.0196 94.2032 56.0508C94.1719 56.082 94.1348 56.1067 94.094 56.1235C94.0531 56.1403 94.0093 56.1489 93.9652 56.1488ZM93.9195 52.174C93.8424 52.1295 93.7862 52.0561 93.7631 51.9701C93.7401 51.8841 93.7522 51.7925 93.7967 51.7154L94.2018 51.014C94.299 50.8457 94.4388 50.7059 94.6071 50.6088C94.7754 50.5116 94.9664 50.4604 95.1607 50.4604C95.3551 50.4604 95.546 50.5116 95.7144 50.6088C95.8827 50.7059 96.0225 50.8457 96.1197 51.014L96.7422 52.0923L96.7443 52.0845C96.7673 51.9985 96.8236 51.9252 96.9007 51.8806C96.9778 51.8361 97.0695 51.824 97.1555 51.8471C97.2415 51.8701 97.3148 51.9264 97.3594 52.0035C97.4039 52.0806 97.416 52.1723 97.3929 52.2583L97.181 53.049C97.1701 53.0883 97.1521 53.1252 97.1279 53.158C97.1214 53.1669 97.1124 53.1735 97.1051 53.1819C97.0854 53.2046 97.0628 53.2246 97.0377 53.2413C97.0327 53.2445 97.0299 53.2498 97.0246 53.2528C97.0119 53.2591 96.9988 53.2645 96.9853 53.2691C96.9753 53.2738 96.9651 53.278 96.9547 53.2817C96.8952 53.3015 96.8311 53.3032 96.7707 53.2866L96.7698 53.2864L95.9791 53.0745C95.8931 53.0515 95.8198 52.9952 95.7752 52.9181C95.7307 52.841 95.7186 52.7494 95.7417 52.6633C95.7647 52.5773 95.821 52.504 95.8981 52.4595C95.9752 52.4149 96.0669 52.4029 96.1529 52.4259L96.1607 52.428L95.5383 51.3498C95.5 51.2836 95.4449 51.2285 95.3787 51.1903C95.3124 51.152 95.2372 51.1319 95.1607 51.1319C95.0842 51.1319 95.009 51.152 94.9428 51.1903C94.8765 51.2285 94.8215 51.2836 94.7832 51.3498L94.3781 52.0512C94.3336 52.1283 94.2603 52.1845 94.1743 52.2075C94.0883 52.2306 93.9966 52.2185 93.9195 52.174ZM98.1252 55.5949C98.0289 55.7641 97.8893 55.9045 97.7207 56.0019C97.5522 56.0992 97.3608 56.1499 97.1661 56.1488H95.9212L95.9268 56.1544C95.9583 56.1855 95.9833 56.2225 96.0004 56.2633C96.0175 56.3041 96.0264 56.3479 96.0265 56.3922C96.0266 56.4364 96.018 56.4803 96.0011 56.5212C95.9843 56.5621 95.9595 56.5993 95.9282 56.6306C95.8969 56.6619 95.8597 56.6867 95.8188 56.7036C95.7779 56.7204 95.734 56.7291 95.6898 56.7289C95.6455 56.7288 95.6017 56.7199 95.5609 56.7028C95.5201 56.6857 95.483 56.6607 95.4519 56.6292L94.8731 56.0504C94.8723 56.0496 94.8721 56.0484 94.8712 56.0476C94.8096 55.9851 94.775 55.9008 94.775 55.813C94.775 55.7252 94.8096 55.6409 94.8712 55.5783C94.8721 55.5775 94.8723 55.5764 94.8731 55.5755L95.4519 54.9967C95.5149 54.9337 95.6003 54.8983 95.6894 54.8983C95.7784 54.8983 95.8638 54.9337 95.9268 54.9967C95.9898 55.0597 96.0252 55.1451 96.0252 55.2341C96.0252 55.3232 95.9898 55.4086 95.9268 55.4716L95.9212 55.4772H97.1662C97.2427 55.4772 97.3179 55.4571 97.3841 55.4188C97.4504 55.3806 97.5054 55.3256 97.5437 55.2593C97.582 55.1931 97.6021 55.1179 97.6022 55.0414C97.6022 54.9649 97.582 54.8897 97.5438 54.8235L97.1387 54.122C97.0944 54.0449 97.0825 53.9534 97.1056 53.8675C97.1287 53.7817 97.1849 53.7085 97.2619 53.664C97.3389 53.6196 97.4304 53.6075 97.5163 53.6304C97.6022 53.6532 97.6755 53.7093 97.7201 53.7862L98.1252 54.4877C98.2235 54.6556 98.2753 54.8467 98.2753 55.0413C98.2753 55.2359 98.2235 55.427 98.1252 55.5949Z" fill="url(#paint1_linear_297_3517)"/>
</g>
<defs>
<filter id="filter0_d_297_3517" x="0.936554" y="-1.63866" width="199.038" height="212.738" filterUnits="userSpaceOnUse" color-interpolation-filters="sRGB">
<feFlood flood-opacity="0" result="BackgroundImageFix"/>
<feColorMatrix in="SourceAlpha" type="matrix" values="0 0 0 0 0 0 0 0 0 0 0 0 0 0 0 0 0 0 127 0" result="hardAlpha"/>
<feOffset dy="39.4839"/>
<feGaussianBlur stdDeviation="39.4839"/>
<feColorMatrix type="matrix" values="0 0 0 0 0.0666667 0 0 0 0 0.0666667 0 0 0 0 0.0666667 0 0 0 0.08 0"/>
<feBlend mode="normal" in2="BackgroundImageFix" result="effect1_dropShadow_297_3517"/>
<feBlend mode="normal" in="SourceGraphic" in2="effect1_dropShadow_297_3517" result="shape"/>
</filter>
<linearGradient id="paint0_linear_297_3517" x1="99.7704" y1="23.2452" x2="102.121" y2="92.5918" gradientUnits="userSpaceOnUse">
<stop stop-color="#008300"/>
<stop offset="1" stop-color="#295011"/>
</linearGradient>
<linearGradient id="paint1_linear_297_3517" x1="95.0578" y1="48.7905" x2="95.2609" y2="56.7264" gradientUnits="userSpaceOnUse">
<stop stop-color="#008300"/>
<stop offset="1" stop-color="#295011"/>
</linearGradient>
<clipPath id="clip0_297_3517">
<rect width="41.1023" height="54.8031" fill="white" transform="translate(79.9043 37.8452)"/>
</clipPath>
</defs>
</svg>
