<svg width="24" height="24" viewBox="0 0 24 24" fill="none" xmlns="http://www.w3.org/2000/svg">
<g clip-path="url(#clip0_1388_7167)">
<path d="M21.6 0H5.99639C4.89361 0 3.99637 0.897187 3.99637 2.00002V18.3972L1.20356 18.3964C0.54 18.3964 0 18.9364 0 19.6V21.6C0 22.9236 1.07639 24 2.4 24H17.6C17.6028 24 17.6052 23.9984 17.608 23.9984C18.2 23.9952 18.7748 23.7756 19.2144 23.376C19.7137 22.922 20 22.2748 20 21.6V5.60358H22.7964C23.46 5.60358 24 5.06358 24 4.39997V2.4C24 1.07639 22.9236 0 21.6 0ZM9.6 2.4H14.4C14.6208 2.4 14.8 2.57878 14.8 2.79998C14.8 3.02119 14.6208 3.19997 14.4 3.19997H9.6C9.37922 3.19997 9.20002 3.02119 9.20002 2.79998C9.20002 2.57878 9.37922 2.4 9.6 2.4ZM6.80002 4.8H17.2C17.4208 4.8 17.6 4.97878 17.6 5.19998C17.6 5.42119 17.4208 5.59997 17.2 5.59997H6.80002C6.57923 5.59997 6.40003 5.42119 6.40003 5.19998C6.40003 4.97878 6.57919 4.8 6.80002 4.8ZM6.80002 7.2H17.2C17.4208 7.2 17.6 7.37878 17.6 7.59998C17.6 7.82119 17.4208 7.99997 17.2 7.99997H6.80002C6.57923 7.99997 6.40003 7.82119 6.40003 7.59998C6.40003 7.37878 6.57919 7.2 6.80002 7.2ZM2.4 23.2C1.51758 23.2 0.800016 22.4824 0.800016 21.6V19.6C0.800016 19.3772 0.981234 19.1964 1.20323 19.1964L15.2 19.2V21.514V21.6C15.2 21.6288 15.2068 21.656 15.208 21.6844C15.2108 21.7292 15.2153 21.7736 15.2204 21.818C15.2688 22.3452 15.478 22.8264 15.8128 23.2H2.4ZM14 17.6C12.2944 17.6 10.8156 16.6224 10.0856 15.2H6.80002C6.57923 15.2 6.40003 15.0212 6.40003 14.8C6.40003 14.5788 6.57923 14.4 6.80002 14.4H9.77044C9.66202 14.0181 9.60005 13.6164 9.60005 13.2C9.60005 13.0649 9.60844 12.9321 9.62044 12.8001H6.80002C6.57923 12.8001 6.40003 12.6213 6.40003 12.4001C6.40003 12.1789 6.57923 12.0001 6.80002 12.0001H9.77044C9.93923 11.4069 10.2256 10.8633 10.6084 10.4001H6.80002C6.57923 10.4001 6.40003 10.2213 6.40003 10.0001C6.40003 9.77892 6.57923 9.60014 6.80002 9.60014H11.478C12.1932 9.09773 13.0616 8.80013 14 8.80013C16.426 8.80013 18.4 10.7741 18.4 13.2001C18.4 15.626 16.426 17.6 14 17.6ZM23.2 4.40002C23.2 4.62281 23.0188 4.80361 22.7964 4.80361H20V2.4C20 1.51758 20.7176 0.800016 21.6 0.800016C22.4824 0.800016 23.1999 1.51763 23.1999 2.4V4.40002H23.2Z" fill="white"/>
<path d="M14.0004 9.6001C12.0156 9.6001 10.4004 11.2149 10.4004 13.2001C10.4004 15.1853 12.0156 16.8001 14.0004 16.8001C15.9852 16.8001 17.6004 15.1853 17.6004 13.2001C17.6004 11.2149 15.9852 9.6001 14.0004 9.6001ZM16.3332 11.8221L13.9332 15.4221C13.8667 15.5217 13.7587 15.5865 13.64 15.5981C13.6264 15.5993 13.6136 15.6001 13.6004 15.6001C13.4947 15.6001 13.3928 15.5586 13.3176 15.483L11.7176 13.883C11.5612 13.727 11.5612 13.4738 11.7176 13.3174C11.874 13.1614 12.1268 13.1614 12.2832 13.3174L13.5384 14.5726L15.6676 11.3786C15.7904 11.195 16.0384 11.145 16.2224 11.2674C16.406 11.3901 16.4556 11.6381 16.3332 11.8221Z" fill="white"/>
</g>
<defs>
<clipPath id="clip0_1388_7167">
<rect width="24" height="24" fill="white"/>
</clipPath>
</defs>
</svg>
