<svg width="25" height="24" viewBox="0 0 25 24" fill="none" xmlns="http://www.w3.org/2000/svg">
<path fill-rule="evenodd" clip-rule="evenodd" d="M4.27354 8.87739C4.61718 4.70845 8.10097 1.5 12.2841 1.5H12.716C16.8991 1.5 20.3829 4.70845 20.7265 8.87739C20.9115 11.122 20.2182 13.3508 18.7925 15.0943L13.9995 20.9561C13.2245 21.9039 11.7756 21.9039 11.0006 20.9561L6.20752 15.0943C4.78187 13.3508 4.08852 11.122 4.27354 8.87739ZM16.0303 8.53033C16.3232 8.23744 16.3232 7.76256 16.0303 7.46967C15.7374 7.17678 15.2626 7.17678 14.9697 7.46967L12 10.4393L10.5303 8.96967C10.2374 8.67678 9.76256 8.67678 9.46967 8.96967C9.17678 9.26256 9.17678 9.73744 9.46967 10.0303L11.4697 12.0303C11.7626 12.3232 12.2374 12.3232 12.5303 12.0303L16.0303 8.53033Z" fill="white"/>
</svg>
