<svg width="22" height="20" viewBox="0 0 22 20" fill="none" xmlns="http://www.w3.org/2000/svg">
<path d="M11 16.5C11 13.0625 13.75 10.3125 17.1875 10.3125C17.9438 10.3125 18.6313 10.45 19.25 10.6562V5.9125L20.625 6.6V9.625C20.625 10.0375 20.9 10.3125 21.3125 10.3125C21.725 10.3125 22 10.0375 22 9.625V6.1875C22 5.9125 21.8625 5.70625 21.5875 5.56875L19.25 4.4V3.4375C19.25 1.5125 17.7375 0 15.8125 0H6.1875C4.2625 0 2.75 1.5125 2.75 3.4375V4.4L0.4125 5.56875C0.1375 5.70625 0 5.9125 0 6.1875V9.625C0 10.0375 0.275 10.3125 0.6875 10.3125C1.1 10.3125 1.375 10.0375 1.375 9.625V6.6L2.75 5.9125V15.125C2.75 15.7437 3.025 16.2938 3.4375 16.6375V17.875C3.4375 19.0438 4.33125 19.9375 5.5 19.9375H6.875C8.04375 19.9375 8.9375 19.0438 8.9375 17.875V17.1875H11.0688C11 16.9813 11 16.7062 11 16.5ZM8.9375 13.8875C8.86875 14.2313 8.59375 14.4375 8.25 14.4375C8.18125 14.4375 8.1125 14.4375 8.1125 14.4375L5.3625 13.75C5.01875 13.6812 4.74375 13.2687 4.88125 12.925C4.95 12.5812 5.3625 12.3063 5.70625 12.4438L8.45625 13.1313C8.8 13.2 9.00625 13.5438 8.9375 13.8875ZM4.125 9.14375V3.4375C4.125 2.26875 5.01875 1.375 6.1875 1.375H15.8125C16.9813 1.375 17.875 2.26875 17.875 3.4375V9.14375C13.4062 10.6562 8.59375 10.6562 4.125 9.14375Z" fill="#295011"/>
</svg>
