<svg width="20" height="22" viewBox="0 0 20 22" fill="none" xmlns="http://www.w3.org/2000/svg">
<path d="M19.6764 7.24438C19.5819 7.42753 19.4775 7.60537 19.3636 7.77711L16.6995 11.507C16.4767 11.8182 16.183 12.0719 15.8427 12.2469C15.5024 12.422 15.1253 12.5135 14.7426 12.5138C14.506 12.5099 14.2714 12.4708 14.0464 12.3978V20.1101L18.676 21.5644C18.7507 21.587 18.8284 21.5984 18.9064 21.5983C19.0117 21.5983 19.1159 21.5776 19.2132 21.5374C19.3105 21.4971 19.3988 21.4381 19.4732 21.3636C19.5477 21.2892 19.6067 21.2008 19.647 21.1036C19.6872 21.0063 19.708 20.9021 19.7079 20.7968V7.43747C19.7055 7.37205 19.6949 7.30719 19.6764 7.24438Z" fill="white"/>
<path d="M9.24997 5.92236L7.56592 6.38596V21.4072L12.4434 20.0647V11.0274L10.1218 7.77753C9.72142 7.21695 9.42602 6.58839 9.24997 5.92236Z" fill="white"/>
<path d="M0.61559 5.01293C0.515287 5.0875 0.433826 5.1845 0.377721 5.29618C0.321616 5.40787 0.292424 5.53113 0.292481 5.65611V19.0155C0.292433 19.1878 0.347963 19.3556 0.450824 19.4939C0.553686 19.6321 0.698396 19.7335 0.86347 19.783L5.9626 21.3847V6.34561L1.32444 4.88856C1.20478 4.85247 1.07834 4.84493 0.955238 4.86653C0.832139 4.88813 0.715815 4.93827 0.61559 5.01293Z" fill="white"/>
<path d="M14.0899 10.575C14.1641 10.6789 14.262 10.7635 14.3754 10.8219C14.4889 10.8803 14.6147 10.9108 14.7423 10.9108C14.8699 10.9108 14.9956 10.8803 15.1091 10.8219C15.2225 10.7635 15.3204 10.6789 15.3946 10.575L18.0586 6.84555C18.4938 6.23624 18.7526 5.51881 18.8068 4.77203C18.861 4.02524 18.7084 3.27796 18.3658 2.61221C18.0231 1.94646 17.5037 1.38797 16.8645 0.998055C16.2253 0.608136 15.491 0.401855 14.7423 0.401855C13.9935 0.401855 13.2592 0.608136 12.62 0.998055C11.9808 1.38797 11.4614 1.94646 11.1187 2.61221C10.7761 3.27796 10.6235 4.02524 10.6777 4.77203C10.7319 5.51881 10.9907 6.23624 11.4259 6.84555L14.0899 10.575ZM14.7423 3.14107C15.0065 3.14107 15.2648 3.21942 15.4845 3.36622C15.7042 3.51301 15.8754 3.72166 15.9765 3.96577C16.0776 4.20988 16.1041 4.47849 16.0525 4.73764C16.001 4.99678 15.8737 5.23482 15.6869 5.42166C15.5001 5.60849 15.262 5.73573 15.0029 5.78727C14.7437 5.83882 14.4751 5.81237 14.231 5.71125C13.9869 5.61014 13.7783 5.43891 13.6315 5.21921C13.4847 4.99952 13.4063 4.74123 13.4063 4.47701C13.4063 4.30157 13.4409 4.12785 13.508 3.96576C13.5751 3.80367 13.6735 3.6564 13.7976 3.53235C13.9216 3.40829 14.0689 3.30989 14.231 3.24275C14.3931 3.17562 14.5668 3.14106 14.7423 3.14107Z" fill="white"/>
</svg>
