<svg width="20" height="22" viewBox="0 0 20 22" fill="none" xmlns="http://www.w3.org/2000/svg">
<path d="M19.6762 7.24414C19.5817 7.42729 19.4772 7.60512 19.3633 7.77686L16.6993 11.5068C16.4765 11.818 16.1828 12.0716 15.8425 12.2467C15.5022 12.4218 15.125 12.5132 14.7423 12.5135C14.5058 12.5097 14.2711 12.4706 14.0461 12.3975V20.1098L18.6757 21.5642C18.7505 21.5868 18.8281 21.5982 18.9062 21.5981C19.0115 21.5981 19.1157 21.5774 19.213 21.5371C19.3102 21.4969 19.3986 21.4378 19.473 21.3634C19.5474 21.289 19.6065 21.2006 19.6467 21.1033C19.687 21.0061 19.7077 20.9019 19.7077 20.7966V7.43722C19.7052 7.37181 19.6947 7.30695 19.6762 7.24414V7.24414Z" fill="#295011"/>
<path d="M9.24948 5.92236L7.56543 6.38596V21.4072L12.4429 20.0647V11.0274L10.1214 7.77753C9.72093 7.21695 9.42553 6.58839 9.24948 5.92236V5.92236Z" fill="#295011"/>
<path d="M0.615346 5.01293C0.515043 5.0875 0.433582 5.1845 0.377477 5.29618C0.321372 5.40787 0.29218 5.53113 0.292236 5.65611V19.0155C0.292189 19.1878 0.347718 19.3556 0.45058 19.4939C0.553442 19.6321 0.698152 19.7335 0.863225 19.783L5.96236 21.3847V6.34561L1.32419 4.88856C1.20454 4.85247 1.07809 4.84493 0.954994 4.86653C0.831895 4.88813 0.71557 4.93827 0.615346 5.01293V5.01293Z" fill="#295011"/>
<path d="M14.0897 10.575C14.1639 10.6789 14.2617 10.7635 14.3752 10.8219C14.4886 10.8803 14.6144 10.9108 14.742 10.9108C14.8696 10.9108 14.9954 10.8803 15.1088 10.8219C15.2223 10.7635 15.3202 10.6789 15.3943 10.575L18.0584 6.84555C18.4935 6.23624 18.7524 5.51881 18.8066 4.77203C18.8608 4.02524 18.7082 3.27796 18.3655 2.61221C18.0229 1.94646 17.5035 1.38797 16.8642 0.998055C16.225 0.608136 15.4908 0.401855 14.742 0.401855C13.9933 0.401855 13.259 0.608136 12.6198 0.998055C11.9806 1.38797 11.4611 1.94646 11.1185 2.61221C10.7759 3.27796 10.6233 4.02524 10.6774 4.77203C10.7316 5.51881 10.9905 6.23624 11.4256 6.84555L14.0897 10.575ZM14.742 3.14107C15.0062 3.14107 15.2645 3.21942 15.4842 3.36622C15.7039 3.51301 15.8751 3.72166 15.9763 3.96577C16.0774 4.20988 16.1038 4.47849 16.0523 4.73764C16.0007 4.99678 15.8735 5.23482 15.6867 5.42166C15.4998 5.60849 15.2618 5.73573 15.0026 5.78727C14.7435 5.83882 14.4749 5.81237 14.2308 5.71125C13.9867 5.61014 13.778 5.43891 13.6312 5.21921C13.4844 4.99952 13.4061 4.74123 13.4061 4.47701C13.4061 4.30157 13.4406 4.12785 13.5078 3.96576C13.5749 3.80367 13.6733 3.6564 13.7973 3.53235C13.9214 3.40829 14.0687 3.30989 14.2308 3.24275C14.3928 3.17562 14.5666 3.14106 14.742 3.14107V3.14107Z" fill="#295011"/>
</svg>
