<svg width="19" height="20" viewBox="0 0 19 20" fill="none" xmlns="http://www.w3.org/2000/svg">
<path d="M10.2838 3.30088L9.57501 5.24829L12.4961 6.31148L13.2049 4.36407L10.2838 3.30088Z" fill="#464F54"/>
<path d="M9.5 0.625001C7.02406 0.623997 4.64881 1.60511 2.89531 3.35313C2.88594 3.3625 2.87656 3.3625 2.87188 3.37188C2.8625 3.37656 2.8625 3.38594 2.85781 3.39063C1.10649 5.14421 0.123474 7.52166 0.125002 10C0.125002 15.1703 4.32969 19.375 9.5 19.375C11.9768 19.3756 14.3524 18.3926 16.1047 16.6422C16.1141 16.6375 16.1234 16.6375 16.1281 16.6281C16.1375 16.6234 16.1375 16.6094 16.1469 16.6047C17.8941 14.8507 18.8751 12.4758 18.875 10C18.875 4.82969 14.6703 0.625001 9.5 0.625001ZM15.7766 15.6156L12.3734 12.2078L12.0172 13.1781L15.1156 16.2766C13.5756 17.6669 11.5748 18.4368 9.5 18.4375C4.84531 18.4375 1.0625 14.65 1.0625 10C1.06285 7.92603 1.83096 5.92561 3.21875 4.38438L6.62656 7.79219L6.75781 7.43594C6.82517 7.24091 6.93947 7.06544 7.09063 6.925L3.88438 3.71875C5.4256 2.33094 7.42603 1.56283 9.5 1.5625C14.15 1.5625 17.9375 5.34531 17.9375 10C17.9368 12.0748 17.1669 14.0756 15.7766 15.6156Z" fill="#464F54"/>
<path d="M4.48437 13.6844C4.42188 13.8549 4.39365 14.0361 4.40131 14.2175C4.40898 14.3989 4.45237 14.577 4.52902 14.7417C4.60566 14.9063 4.71405 15.0541 4.84796 15.1768C4.98187 15.2994 5.13867 15.3944 5.30937 15.4563L9.20469 16.8766C9.54906 17.0008 9.92866 16.9832 10.26 16.8276C10.5914 16.672 10.8475 16.3912 10.9719 16.0469L12.0172 13.1782L6.62656 7.79224L4.48437 13.6844Z" fill="#464F54"/>
<path d="M13.1797 8.69683L12.4719 7.29995L8.96095 6.02026L7.5172 6.63433C7.35672 6.70117 7.21157 6.80007 7.09064 6.92495L12.3734 12.2078L13.25 9.79839C13.3154 9.61996 13.3429 9.42986 13.3308 9.2402C13.3187 9.05055 13.2673 8.86549 13.1797 8.69683Z" fill="#464F54"/>
</svg>
