<svg width="22" height="24" viewBox="0 0 22 24" fill="none" xmlns="http://www.w3.org/2000/svg">
<path d="M21.6683 15.4746C21.5501 15.1689 21.3797 14.9492 21.2078 14.7539C20.9564 14.5097 20.6888 14.3359 20.387 14.2285C19.2069 13.416 18.4188 12.4599 17.9793 11.3056C17.9763 11.2977 17.9698 11.2926 17.9662 11.285L16.6492 7.8662C15.8436 5.76268 14.2479 4.09276 12.1585 3.16698C10.8057 2.56139 9.35785 2.33898 7.95069 2.4865L7.92756 2.42674C7.70588 1.84862 7.26985 1.39062 6.70051 1.13769C6.13117 0.884755 5.49836 0.867175 4.92219 1.08984C4.34455 1.3125 3.88703 1.74804 3.63362 2.31738C3.38069 2.88672 3.3636 3.51757 3.58577 4.09569L3.60506 4.14592C0.597058 6.42986 -0.560102 10.4141 0.801098 13.9453L2.12416 17.4003C2.12465 17.4016 2.12434 17.403 2.12483 17.4043C2.55403 18.5361 2.61311 19.792 2.3011 21.1367C1.96174 21.6963 1.8968 22.3838 2.12971 22.9893C2.13169 22.9944 2.13368 22.9995 2.13569 23.0046C2.42681 23.743 3.31522 24.0517 4.05675 23.7687L20.8171 17.3723C21.5757 17.0828 21.9565 16.2337 21.6683 15.4746ZM3.09895 12.9345C3.07649 12.9385 3.05403 12.9404 3.03206 12.9404C2.868 12.9404 2.72151 12.8242 2.6888 12.6572C2.61165 12.2568 2.56868 11.8476 2.56185 11.4394C2.55892 11.2461 2.71273 11.0869 2.90609 11.084C2.90804 11.084 2.91 11.084 2.91195 11.084C3.10287 11.084 3.25863 11.2363 3.26205 11.4277C3.26791 11.7949 3.30648 12.164 3.37631 12.5244C3.41291 12.7138 3.28889 12.8974 3.09895 12.9345ZM5.97883 6.0781C5.51399 6.40818 5.09406 6.79881 4.73078 7.23924C4.14094 7.95604 3.7049 8.80858 3.46955 9.70506C3.42853 9.86229 3.28644 9.9658 3.13117 9.9658C3.10187 9.9658 3.07209 9.96286 3.0423 9.95506C2.85529 9.90526 2.74347 9.71482 2.79279 9.52732C3.05304 8.53416 3.53644 7.58884 4.19074 6.79392C4.59308 6.30564 5.05842 5.87303 5.57453 5.5078C5.73078 5.39452 5.95002 5.43163 6.06232 5.59081C6.17414 5.74803 6.13654 5.96677 5.97883 6.0781Z" fill="#464F54"/>
</svg>
