<svg width="18" height="23" viewBox="0 0 18 23" fill="none" xmlns="http://www.w3.org/2000/svg">
<path d="M3.92439 7H2.42607L2.11768 12L4.23532 11.0964L3.92439 7Z" fill="white"/>
<path d="M17.1 11.8844L9.45 14.582V22.2462H8.55V10L0.9 12.6976V22.2462H0V23H18V22.2462H17.1V11.8844ZM6.3 12.0705H7.2V13.2012H6.3V12.0705ZM6.3 13.9549H7.2V16.9699H6.3V13.9549ZM6.3 18.1006H7.2V21.4925H6.3V18.1006ZM14.85 13.9549H15.75V15.8393H14.85V13.9549ZM14.85 16.5931H15.75V21.4925H14.85V16.5931Z" fill="white"/>
<path d="M4.23532 5H2.11834L2.11768 6H4.23532V5Z" fill="white"/>
<path d="M11.9668 10.0171L11.647 13L13.7646 12.1683L13.4362 10.0243V10H11.9668V10.0171Z" fill="white"/>
<path d="M12.8665 1.8363L12.3168 2.25922L13.009 2.79176L14.8234 1.39588L13.009 0L12.3168 0.532538L13.0095 1.06542C11.4722 1.19 9.98768 1.56733 8.65649 2.17184C7.32531 2.77634 6.17856 3.5939 5.29395 4.56913L6.09681 5C6.87726 4.13953 7.88242 3.41374 9.04807 2.869C10.2137 2.32425 11.5142 1.97254 12.8665 1.8363Z" fill="white"/>
<path d="M13.2972 4L12.7149 4.54129L13.3163 5.10022C12.2358 5.25256 11.2181 5.66843 10.3669 6.30545C9.5157 6.94247 8.8614 7.77787 8.4707 8.7265L9.23988 9C9.5595 8.22389 10.083 7.53448 10.7627 6.99463C11.4425 6.45478 12.2568 6.08166 13.1314 5.90928L12.7149 6.29635L13.2972 6.83764L14.8236 5.41882L13.2972 4Z" fill="white"/>
</svg>
