<svg width="18" height="18" viewBox="0 0 18 18" fill="none" xmlns="http://www.w3.org/2000/svg">
<path d="M4.75 1C4.75 0.585786 4.41421 0.25 4 0.25C3.58579 0.25 3.25 0.585786 3.25 1V2.81643C1.75693 3.02751 0.577376 4.20845 0.3777 5.71484L0.291148 6.36779C0.276474 6.47849 0.262443 6.58926 0.249054 6.70008C0.213538 6.99405 0.445143 7.25 0.741249 7.25H17.2587C17.5548 7.25 17.7864 6.99405 17.7509 6.70008C17.7375 6.58926 17.7235 6.47849 17.7088 6.36779L17.6222 5.71484C17.4226 4.20847 16.243 3.02754 14.75 2.81644V1C14.75 0.585786 14.4142 0.25 14 0.25C13.5858 0.25 13.25 0.585786 13.25 1V2.66763C10.4223 2.4158 7.57773 2.4158 4.75 2.66763V1Z" fill="#295011"/>
<path d="M17.9446 9.22555C17.9358 8.95912 17.7156 8.75 17.4491 8.75H0.550866C0.284295 8.75 0.0641291 8.95912 0.0553744 9.22555C-0.00402413 11.0332 0.105778 12.8446 0.384511 14.6359C0.595521 15.9919 1.69718 17.0335 3.06292 17.1681L4.25593 17.2858C7.41097 17.5969 10.589 17.5969 13.744 17.2858L14.937 17.1681C16.3028 17.0335 17.4044 15.9919 17.6154 14.6359C17.8942 12.8446 18.004 11.0332 17.9446 9.22555Z" fill="#295011"/>
</svg>
