<svg width="200" height="214" viewBox="0 0 200 214" fill="none" xmlns="http://www.w3.org/2000/svg">
<g clip-path="url(#clip0_297_3523)" filter="url(#filter0_d_297_3523)">
<path d="M97.9039 94.0606C82.3516 71.5144 79.4648 69.2005 79.4648 60.9144C79.4648 49.5643 88.6659 40.3633 100.016 40.3633C111.366 40.3633 120.567 49.5643 120.567 60.9144C120.567 69.2005 117.68 71.5144 102.128 94.0606C101.107 95.535 98.9244 95.5349 97.9039 94.0606Z" fill="#F5000F"/>
<path d="M90.4157 60.9402V66.3717C90.4157 67.5755 91.3916 68.5513 92.5954 68.5513H92.9167C93.2052 69.9726 94.4617 71.0423 95.9681 71.0423C97.4745 71.0423 98.7311 69.9726 99.0196 68.5513H100.39C100.678 69.9726 101.935 71.0423 103.441 71.0423C104.947 71.0423 106.204 69.9724 106.493 68.5512H108.423C109.455 68.5512 110.291 67.7147 110.291 66.683V61.995C110.291 61.705 110.224 61.4189 110.094 61.1595L108.079 57.1291C107.762 56.4961 107.115 56.0963 106.408 56.0964L105.309 56.0965V54.5396C105.309 53.3358 104.333 52.36 103.13 52.36H100.525C100.797 52.7639 100.95 53.2466 100.95 53.7525V58.4404C100.95 59.3839 100.417 60.2465 99.5731 60.6684L95.8367 62.5366C95.1354 62.8872 94.3099 62.8872 93.6087 62.5366L90.4157 60.9402ZM105.309 57.342L106.408 57.3419C106.644 57.3418 106.859 57.4751 106.965 57.6861L108.661 61.0783H105.309V57.342ZM95.9681 66.0604C96.9999 66.0604 97.8364 66.8968 97.8364 67.9286C97.8364 68.9603 96.9999 69.7968 95.9681 69.7968C94.9363 69.7968 94.0999 68.9603 94.0999 67.9286C94.0999 66.8968 94.9363 66.0604 95.9681 66.0604ZM101.573 67.9286C101.573 66.8968 102.409 66.0604 103.441 66.0604C104.473 66.0604 105.309 66.8968 105.309 67.9286C105.309 68.9603 104.473 69.7968 103.441 69.7968C102.409 69.7968 101.573 68.9603 101.573 67.9286ZM89.7402 53.7526V58.4406C89.7402 58.9123 90.0068 59.3436 90.4287 59.5546L94.1652 61.4228C94.5158 61.5981 94.9285 61.5981 95.2792 61.4228L99.0156 59.5546C99.4376 59.3436 99.7041 58.9123 99.7041 58.4406V53.7526C99.7041 53.2809 99.4376 52.8496 99.0156 52.6386L95.2792 50.7704C94.9285 50.5951 94.5158 50.5951 94.1652 50.7704L90.4287 52.6386C90.0068 52.8496 89.7402 53.2809 89.7402 53.7526ZM91.8507 53.6547L94.7222 54.8671L97.5936 53.6547C97.9105 53.5209 98.2758 53.6693 98.4096 53.9861C98.5434 54.303 98.395 54.6683 98.0781 54.8021L95.345 55.9561L95.3449 59.2103C95.3449 59.5543 95.0661 59.8331 94.7222 59.8331C94.3782 59.833 94.0994 59.5542 94.0994 59.2103L94.0995 55.9561L91.3662 54.8021C91.0494 54.6683 90.901 54.303 91.0348 53.9861C91.1685 53.6693 91.5339 53.5209 91.8507 53.6547Z" fill="#F7F7F4"/>
<path d="M90.3633 53.6057L92.2315 52.9829H96.5907L99.0817 53.6057V57.9649L95.3452 59.8331H93.477L90.3633 56.0966V53.6057Z" fill="#F7F7F4"/>
<path d="M93.5257 58.6668H92.7157C92.5213 58.6668 92.3304 58.6157 92.162 58.5185C91.9937 58.4213 91.8539 58.2815 91.7567 58.1131C91.6595 57.9448 91.6084 57.7538 91.6084 57.5594C91.6084 57.365 91.6596 57.1741 91.7568 57.0057L92.3793 55.9275L92.3715 55.9296C92.3289 55.9411 92.2845 55.944 92.2407 55.9382C92.197 55.9324 92.1549 55.9181 92.1167 55.8961C92.0785 55.874 92.045 55.8447 92.0182 55.8097C91.9914 55.7747 91.9717 55.7348 91.9603 55.6922C91.9489 55.6496 91.9459 55.6052 91.9517 55.5615C91.9575 55.5178 91.9718 55.4756 91.9938 55.4374C92.0159 55.3992 92.0452 55.3658 92.0802 55.3389C92.1152 55.3121 92.1551 55.2924 92.1977 55.281L92.9875 55.0694C93.0686 55.0468 93.1553 55.0571 93.229 55.0979C93.2336 55.1003 93.2387 55.1001 93.2432 55.1027C93.2488 55.1059 93.2518 55.1115 93.2571 55.115C93.3273 55.1573 93.3781 55.2254 93.3987 55.3046L93.3996 55.3065L93.6115 56.0973C93.623 56.1399 93.626 56.1844 93.6203 56.2282C93.6147 56.2719 93.6004 56.3142 93.5783 56.3524C93.5563 56.3907 93.5269 56.4243 93.4919 56.4511C93.4569 56.478 93.4169 56.4978 93.3743 56.5092C93.3316 56.5206 93.2871 56.5235 93.2434 56.5177C93.1996 56.512 93.1574 56.4976 93.1192 56.4755C93.081 56.4533 93.0475 56.4239 93.0207 56.3888C92.9938 56.3537 92.9742 56.3137 92.9629 56.271L92.9608 56.2632L92.3383 57.3415C92.3 57.4078 92.2799 57.4829 92.2799 57.5594C92.2799 57.636 92.3 57.7111 92.3383 57.7774C92.3765 57.8436 92.4315 57.8986 92.4978 57.9369C92.5641 57.9751 92.6392 57.9953 92.7157 57.9952H93.5257C93.5699 57.9951 93.6137 58.0037 93.6545 58.0205C93.6954 58.0373 93.7325 58.0621 93.7638 58.0933C93.7951 58.1244 93.8199 58.1615 93.8368 58.2023C93.8538 58.2431 93.8625 58.2869 93.8625 58.331C93.8625 58.3752 93.8538 58.419 93.8368 58.4598C93.8199 58.5006 93.7951 58.5376 93.7638 58.5688C93.7325 58.6 93.6954 58.6247 93.6545 58.6416C93.6137 58.6584 93.5699 58.667 93.5257 58.6668ZM93.4801 54.6921C93.403 54.6475 93.3467 54.5742 93.3237 54.4882C93.3007 54.4022 93.3127 54.3106 93.3573 54.2334L93.7623 53.5321C93.8595 53.3638 93.9993 53.224 94.1676 53.1268C94.336 53.0297 94.5269 52.9785 94.7213 52.9785C94.9156 52.9785 95.1066 53.0297 95.2749 53.1268C95.4432 53.224 95.583 53.3638 95.6802 53.5321L96.3027 54.6104L96.3048 54.6026C96.3279 54.5166 96.3841 54.4432 96.4613 54.3987C96.5384 54.3542 96.63 54.3421 96.716 54.3651C96.8021 54.3882 96.8754 54.4445 96.9199 54.5216C96.9644 54.5987 96.9765 54.6903 96.9535 54.7764L96.7416 55.5671C96.7307 55.6063 96.7127 55.6433 96.6884 55.676C96.682 55.6849 96.673 55.6916 96.6656 55.6999C96.646 55.7227 96.6233 55.7427 96.5982 55.7594C96.5932 55.7626 96.5904 55.7679 96.5852 55.7709C96.5724 55.7772 96.5593 55.7826 96.5459 55.7871C96.5359 55.7919 96.5257 55.7961 96.5152 55.7998C96.4557 55.8196 96.3917 55.8213 96.3312 55.8046L96.3304 55.8045L95.5397 55.5926C95.4536 55.5696 95.3803 55.5133 95.3358 55.4362C95.2913 55.3591 95.2792 55.2674 95.3022 55.1814C95.3253 55.0954 95.3815 55.0221 95.4587 54.9775C95.5358 54.933 95.6274 54.9209 95.7134 54.944L95.7213 54.9461L95.0988 53.8679C95.0605 53.8016 95.0055 53.7466 94.9392 53.7084C94.873 53.6701 94.7978 53.65 94.7213 53.65C94.6448 53.65 94.5696 53.6701 94.5033 53.7084C94.4371 53.7466 94.382 53.8016 94.3437 53.8679L93.9387 54.5692C93.8941 54.6463 93.8208 54.7026 93.7348 54.7256C93.6488 54.7486 93.5572 54.7366 93.4801 54.6921ZM97.6857 58.113C97.5894 58.2821 97.4498 58.4226 97.2813 58.5199C97.1127 58.6173 96.9213 58.668 96.7267 58.6668H95.4817L95.4873 58.6724C95.5188 58.7035 95.5438 58.7406 95.5609 58.7814C95.5781 58.8222 95.5869 58.866 95.5871 58.9103C95.5872 58.9545 95.5786 58.9984 95.5617 59.0393C95.5448 59.0802 95.52 59.1174 95.4887 59.1487C95.4574 59.18 95.4203 59.2048 95.3793 59.2216C95.3384 59.2385 95.2946 59.2471 95.2503 59.247C95.2061 59.2469 95.1623 59.238 95.1214 59.2209C95.0806 59.2038 95.0436 59.1788 95.0125 59.1473L94.4337 58.5685C94.4328 58.5676 94.4326 58.5665 94.4318 58.5657C94.3701 58.5031 94.3356 58.4188 94.3356 58.331C94.3356 58.2432 94.3701 58.1589 94.4318 58.0964C94.4326 58.0956 94.4328 58.0944 94.4337 58.0936L95.0125 57.5148C95.0755 57.4518 95.1609 57.4164 95.2499 57.4164C95.339 57.4164 95.4244 57.4518 95.4873 57.5148C95.5503 57.5777 95.5857 57.6631 95.5857 57.7522C95.5857 57.8413 95.5503 57.9267 95.4873 57.9896L95.4818 57.9952H96.7267C96.8032 57.9953 96.8784 57.9751 96.9447 57.9369C97.011 57.8987 97.066 57.8437 97.1043 57.7774C97.1425 57.7112 97.1627 57.636 97.1627 57.5595C97.1627 57.483 97.1426 57.4078 97.1043 57.3415L96.6993 56.64C96.655 56.5629 96.6431 56.4714 96.6662 56.3856C96.6893 56.2997 96.7455 56.2266 96.8225 56.1821C96.8994 56.1376 96.9909 56.1255 97.0768 56.1484C97.1627 56.1713 97.236 56.2273 97.2807 56.3042L97.6857 57.0057C97.784 57.1737 97.8358 57.3648 97.8358 57.5594C97.8358 57.754 97.784 57.9451 97.6857 58.113Z" fill="#F5000F"/>
</g>
<defs>
<filter id="filter0_d_297_3523" x="0.497101" y="0.87941" width="199.038" height="212.738" filterUnits="userSpaceOnUse" color-interpolation-filters="sRGB">
<feFlood flood-opacity="0" result="BackgroundImageFix"/>
<feColorMatrix in="SourceAlpha" type="matrix" values="0 0 0 0 0 0 0 0 0 0 0 0 0 0 0 0 0 0 127 0" result="hardAlpha"/>
<feOffset dy="39.4839"/>
<feGaussianBlur stdDeviation="39.4839"/>
<feColorMatrix type="matrix" values="0 0 0 0 0.0666667 0 0 0 0 0.0666667 0 0 0 0 0.0666667 0 0 0 0.08 0"/>
<feBlend mode="normal" in2="BackgroundImageFix" result="effect1_dropShadow_297_3523"/>
<feBlend mode="normal" in="SourceGraphic" in2="effect1_dropShadow_297_3523" result="shape"/>
</filter>
<clipPath id="clip0_297_3523">
<rect width="41.1023" height="54.8031" fill="white" transform="translate(79.4648 40.3633)"/>
</clipPath>
</defs>
</svg>
