<svg width="20" height="24" viewBox="0 0 20 24" fill="none" xmlns="http://www.w3.org/2000/svg">
<path d="M10 0.833252C10.9913 0.833216 11.9441 1.2172 12.6583 1.90459C13.3726 2.59199 13.7927 3.52935 13.8307 4.51992L13.8333 4.66658H18.6667C18.8798 4.66727 19.0846 4.74961 19.2389 4.89667C19.3932 5.04372 19.4853 5.24431 19.4962 5.45718C19.5071 5.67005 19.4361 5.87902 19.2977 6.0411C19.1592 6.20319 18.964 6.30607 18.752 6.32859L18.6667 6.33325H17.9393L16.804 21.3799C16.7502 22.0924 16.4292 22.7583 15.9053 23.2441C15.3813 23.73 14.6932 23.9999 13.9787 23.9999H6.02133C5.30681 23.9999 4.61866 23.73 4.09474 23.2441C3.57081 22.7583 3.2498 22.0924 3.196 21.3799L2.06 6.33325H1.33333C1.12703 6.33335 0.928021 6.25691 0.774823 6.11874C0.621624 5.98056 0.525125 5.79047 0.504 5.58525L0.5 5.49992C0.5 5.06858 0.828 4.71325 1.248 4.67125L1.33333 4.66658H6.16667C6.16667 3.64992 6.57053 2.6749 7.28942 1.95601C8.00831 1.23712 8.98334 0.833252 10 0.833252ZM16.268 6.33325H3.732L4.85867 21.2546C4.88085 21.5478 5.01295 21.8219 5.22853 22.0219C5.44411 22.2219 5.72726 22.3331 6.02133 22.3333H13.9787C14.2729 22.3332 14.5562 22.2221 14.7719 22.0221C14.9876 21.8221 15.1198 21.5479 15.142 21.2546L16.2687 6.33325H16.268ZM12.1667 9.83325C12.598 9.83325 12.9533 10.1613 12.996 10.5813L13 10.6666V17.9999C13.001 18.2142 12.9194 18.4206 12.7722 18.5763C12.6249 18.732 12.4234 18.825 12.2094 18.836C11.9954 18.847 11.7854 18.7751 11.623 18.6353C11.4606 18.4955 11.3583 18.2985 11.3373 18.0852L11.3333 17.9999V10.6666C11.3333 10.2066 11.7067 9.83325 12.1667 9.83325ZM7.83333 9.83325C8.26467 9.83325 8.62 10.1613 8.66267 10.5813L8.66667 10.6666V17.9999C8.66766 18.2142 8.58607 18.4206 8.43884 18.5763C8.29161 18.732 8.09006 18.825 7.87605 18.836C7.66205 18.847 7.45203 18.7751 7.28964 18.6353C7.12724 18.4955 7.02495 18.2985 7.004 18.0852L7 17.9999V10.6666C7 10.2066 7.37333 9.83325 7.83333 9.83325ZM10 2.49992C9.44657 2.49988 8.91411 2.71162 8.51185 3.0917C8.10958 3.47178 7.868 3.99138 7.83667 4.54392L7.83333 4.66658H12.1667C12.1667 4.09195 11.9384 3.54085 11.5321 3.13452C11.1257 2.72819 10.5746 2.49992 10 2.49992Z" fill="#FF0000"/>
</svg>
