<svg width="24" height="22" viewBox="0 0 24 22" fill="none" xmlns="http://www.w3.org/2000/svg">
<path d="M6.0125 0.501817C4.45417 0.46666 2.65417 0.942441 0.775 1.87291C0.299167 2.1085 0 2.65432 0 3.23932V20.0018C0 20.5432 0.499583 20.9182 0.935417 20.6885C6.19792 17.9163 10.0938 21.2042 10.2604 21.3452C10.3792 21.4484 10.5208 21.4999 10.6667 21.4999C11.1833 21.4999 11.3333 20.9665 11.3333 20.7509V2.75182C11.3333 2.50793 11.2279 2.27932 11.0508 2.13869C10.9708 2.074 9.02917 0.563223 6.0125 0.501817ZM23.225 1.87291C21.3454 0.945254 19.5383 0.484941 17.9875 0.501348C14.9692 0.562848 13.0667 2.074 12.95 2.13822C12.7708 2.27932 12.6667 2.5076 12.6667 2.75182V20.7096C12.6667 20.9562 12.8125 21.4999 13.3333 21.4999C13.4785 21.4999 13.6224 21.4472 13.7409 21.3439C13.9044 21.2025 17.8009 17.9146 23.0659 20.6877C23.5017 20.9172 24.0013 20.5421 24.0013 20.001V3.23847C23.9625 2.65478 23.7 2.10822 23.225 1.87291Z" fill="white"/>
</svg>
