<svg width="20" height="17" viewBox="0 0 20 17" fill="none" xmlns="http://www.w3.org/2000/svg">
<path d="M6.5 0.5C5.017 0.5 3.79003 1.584 3.55103 3H1C0.724 3 0.5 3.224 0.5 3.5C0.5 3.776 0.724 4 1 4H3.55103C3.79103 5.416 5.017 6.5 6.5 6.5C8.154 6.5 9.5 5.154 9.5 3.5C9.5 1.846 8.154 0.5 6.5 0.5ZM6.5 5.5C5.397 5.5 4.5 4.603 4.5 3.5C4.5 2.397 5.397 1.5 6.5 1.5C7.603 1.5 8.5 2.397 8.5 3.5C8.5 4.603 7.603 5.5 6.5 5.5ZM12.5 3.5C12.5 3.224 12.724 3 13 3H19C19.276 3 19.5 3.224 19.5 3.5C19.5 3.776 19.276 4 19 4H13C12.724 4 12.5 3.776 12.5 3.5ZM19 13H16.449C16.209 11.584 14.983 10.5 13.5 10.5C11.846 10.5 10.5 11.846 10.5 13.5C10.5 15.154 11.846 16.5 13.5 16.5C14.983 16.5 16.21 15.416 16.449 14H19C19.276 14 19.5 13.776 19.5 13.5C19.5 13.224 19.276 13 19 13ZM13.5 15.5C12.397 15.5 11.5 14.603 11.5 13.5C11.5 12.397 12.397 11.5 13.5 11.5C14.603 11.5 15.5 12.397 15.5 13.5C15.5 14.603 14.603 15.5 13.5 15.5ZM7.5 13.5C7.5 13.776 7.276 14 7 14H1C0.724 14 0.5 13.776 0.5 13.5C0.5 13.224 0.724 13 1 13H7C7.276 13 7.5 13.223 7.5 13.5Z" fill="#464F54"/>
</svg>
