<svg width="19" height="18" viewBox="0 0 19 18" fill="none" xmlns="http://www.w3.org/2000/svg">
<path d="M5.25006 1C5.25006 0.585786 4.91427 0.25 4.50006 0.25C4.08585 0.25 3.75006 0.585786 3.75006 1V2.81643C2.25699 3.02751 1.07744 4.20845 0.877761 5.71484L0.791209 6.36779C0.776535 6.47849 0.762504 6.58926 0.749115 6.70008C0.713599 6.99405 0.945204 7.25 1.24131 7.25H17.7588C18.0549 7.25 18.2865 6.99405 18.2509 6.70008C18.2376 6.58926 18.2235 6.47849 18.2089 6.36779L18.1223 5.71484C17.9226 4.20847 16.7431 3.02754 15.2501 2.81644V1C15.2501 0.585786 14.9143 0.25 14.5001 0.25C14.0858 0.25 13.7501 0.585786 13.7501 1V2.66763C10.9223 2.4158 8.0778 2.4158 5.25006 2.66763V1Z" fill="#464F54"/>
<path d="M18.4446 9.22555C18.4359 8.95912 18.2157 8.75 17.9491 8.75H1.05093C0.784356 8.75 0.56419 8.95912 0.555435 9.22555C0.496037 11.0332 0.605839 12.8446 0.884573 14.6359C1.09558 15.9919 2.19724 17.0335 3.56298 17.1681L4.75599 17.2858C7.91103 17.5969 11.089 17.5969 14.2441 17.2858L15.4371 17.1681C16.8028 17.0335 17.9045 15.9919 18.1155 14.6359C18.3942 12.8446 18.504 11.0332 18.4446 9.22555Z" fill="#464F54"/>
</svg>
