<svg width="22" height="17" viewBox="0 0 22 17" fill="none" xmlns="http://www.w3.org/2000/svg">
<path d="M19.125 4.7C18.825 4.4 18.375 4.4 18.075 4.7C17.625 5.15 16.95 5.3 16.35 5.075C16.05 5 15.825 5.075 15.6 5.225L13.125 7.7C12.375 8.45 11.1 8.525 10.125 7.925L12.525 5.525L13.275 4.775C13.575 4.475 13.575 4.025 13.275 3.725C12.975 3.425 12.525 3.425 12.225 3.725L11.7 4.25H9.6C10.575 2.825 12.15 2 13.875 2H21C21.45 2 21.75 1.7 21.75 1.25C21.75 0.8 21.45 0.5 21 0.5H13.875C11.325 0.5 9 2 7.875 4.25H2.25C0.975 4.25 0 5.225 0 6.5V7.25H1.5H8.7L8.475 7.475C8.175 7.775 8.175 8.225 8.475 8.525C8.55 8.6 8.625 8.675 8.775 8.75H1.5H0.75H0V14C0 15.275 0.975 16.25 2.25 16.25H15C16.275 16.25 17.25 15.275 17.25 14V6.65C17.925 6.575 18.6 6.275 19.125 5.75C19.425 5.45 19.425 5 19.125 4.7ZM5.25 13.25H3.75C3.3 13.25 3 12.95 3 12.5C3 12.05 3.3 11.75 3.75 11.75H5.25C5.7 11.75 6 12.05 6 12.5C6 12.95 5.7 13.25 5.25 13.25ZM12.75 13.25C12.3 13.25 11.925 13.025 11.625 12.725C11.325 13.025 10.95 13.25 10.5 13.25C9.675 13.25 9 12.575 9 11.75C9 10.925 9.675 10.25 10.5 10.25C10.95 10.25 11.325 10.475 11.625 10.775C11.925 10.475 12.3 10.25 12.75 10.25C13.575 10.25 14.25 10.925 14.25 11.75C14.25 12.575 13.575 13.25 12.75 13.25Z" fill="#464F54"/>
</svg>
