<svg width="4" height="14" viewBox="0 0 4 14" fill="none" xmlns="http://www.w3.org/2000/svg">
<path d="M2 3C1.66848 3 1.35054 2.8683 1.11612 2.63388C0.881696 2.39946 0.75 2.08152 0.75 1.75C0.75 1.41848 0.881696 1.10054 1.11612 0.866117C1.35054 0.631696 1.66848 0.5 2 0.5C2.33152 0.5 2.64946 0.631696 2.88388 0.866117C3.1183 1.10054 3.25 1.41848 3.25 1.75C3.25 2.08152 3.1183 2.39946 2.88388 2.63388C2.64946 2.8683 2.33152 3 2 3ZM2 8.25C1.66848 8.25 1.35054 8.1183 1.11612 7.88388C0.881696 7.64946 0.75 7.33152 0.75 7C0.75 6.66848 0.881696 6.35054 1.11612 6.11612C1.35054 5.8817 1.66848 5.75 2 5.75C2.33152 5.75 2.64946 5.8817 2.88388 6.11612C3.1183 6.35054 3.25 6.66848 3.25 7C3.25 7.33152 3.1183 7.64946 2.88388 7.88388C2.64946 8.1183 2.33152 8.25 2 8.25ZM0.75 12.25C0.75 12.5815 0.881696 12.8995 1.11612 13.1339C1.35054 13.3683 1.66848 13.5 2 13.5C2.33152 13.5 2.64946 13.3683 2.88388 13.1339C3.1183 12.8995 3.25 12.5815 3.25 12.25C3.25 11.9185 3.1183 11.6005 2.88388 11.3661C2.64946 11.1317 2.33152 11 2 11C1.66848 11 1.35054 11.1317 1.11612 11.3661C0.881696 11.6005 0.75 11.9185 0.75 12.25Z" fill="black"/>
</svg>
