<svg width="25" height="24" viewBox="0 0 25 24" fill="none" xmlns="http://www.w3.org/2000/svg">
<g clip-path="url(#clip0_548_3030)">
<path d="M19.25 13.5C16.325 13.5 14 15.825 14 18.75C14 21.675 16.325 24 19.25 24C22.175 24 24.5 21.675 24.5 18.75C24.5 15.825 22.175 13.5 19.25 13.5ZM22.1 18.6L19.475 19.5C19.4 19.5 19.325 19.5 19.25 19.5C19.1 19.5 18.95 19.425 18.8 19.35C18.65 19.2 18.5 18.975 18.5 18.75V15.75C18.5 15.3 18.8 15 19.25 15C19.7 15 20 15.3 20 15.75V17.7L21.65 17.175C22.025 17.025 22.475 17.25 22.625 17.625C22.7 18 22.475 18.45 22.1 18.6Z" fill="#464F54"/>
<path d="M12.5 18.75C12.5 15 15.5 12 19.25 12C20.075 12 20.825 12.15 21.5 12.375V7.2L23 7.95V11.25C23 11.7 23.3 12 23.75 12C24.2 12 24.5 11.7 24.5 11.25V7.5C24.5 7.2 24.35 6.975 24.05 6.825L21.5 5.55V4.5C21.5 2.4 19.85 0.75 17.75 0.75H7.25C5.15 0.75 3.5 2.4 3.5 4.5V5.55L0.95 6.825C0.65 6.975 0.5 7.2 0.5 7.5V11.25C0.5 11.7 0.8 12 1.25 12C1.7 12 2 11.7 2 11.25V7.95L3.5 7.2V17.25C3.5 17.925 3.8 18.525 4.25 18.9V20.25C4.25 21.525 5.225 22.5 6.5 22.5H8C9.275 22.5 10.25 21.525 10.25 20.25V19.5H12.575C12.5 19.275 12.5 18.975 12.5 18.75ZM10.25 15.9C10.175 16.275 9.875 16.5 9.5 16.5C9.425 16.5 9.35 16.5 9.35 16.5L6.35 15.75C5.975 15.675 5.675 15.225 5.825 14.85C5.9 14.475 6.35 14.175 6.725 14.325L9.725 15.075C10.1 15.15 10.325 15.525 10.25 15.9ZM5 10.725V4.5C5 3.225 5.975 2.25 7.25 2.25H17.75C19.025 2.25 20 3.225 20 4.5V10.725C15.125 12.375 9.875 12.375 5 10.725Z" fill="#464F54"/>
</g>
<defs>
<clipPath id="clip0_548_3030">
<rect width="24" height="24" fill="white" transform="translate(0.5)"/>
</clipPath>
</defs>
</svg>
