<svg width="21" height="20" viewBox="0 0 21 20" fill="none" xmlns="http://www.w3.org/2000/svg">
<path d="M14.0385 9.48985C16.2949 9.48985 18.141 7.65311 18.141 5.40821C18.141 3.16332 16.2949 1.32658 14.0385 1.32658C13.9359 1.32658 13.8334 1.32658 13.7308 1.32658C14.3462 2.34699 14.7564 3.57148 14.7564 4.79597C14.7564 6.53066 14.0385 8.16332 12.9103 9.38781C13.218 9.48985 13.6282 9.48985 14.0385 9.48985Z" fill="#464F54"/>
<path d="M15.7821 11.6326H14.7565C16.2949 12.9591 17.3206 14.9999 17.3206 17.2448C17.3206 17.755 17.218 18.1632 17.1154 18.5713C18.4488 18.3672 19.2693 18.0611 19.7821 17.755C20.2949 17.4489 20.5001 16.9387 20.5001 16.3264C20.5001 13.7754 18.3462 11.6326 15.7821 11.6326Z" fill="#464F54"/>
<path d="M7.88459 9.4898C9.11536 9.4898 10.141 9.08163 11.0641 8.26531C12.0897 7.44898 12.6025 6.12245 12.6025 4.79592C12.6025 3.77551 12.2948 2.7551 11.6795 2.04082C10.8589 0.816326 9.52562 0 7.88459 0C5.32049 0 3.16664 2.14286 3.16664 4.69388C3.16664 7.34694 5.32049 9.4898 7.88459 9.4898Z" fill="#464F54"/>
<path d="M10.6538 11.9389C10.3462 11.9389 10.141 11.8368 9.83333 11.8368H5.9359C2.96154 11.8368 0.5 14.2858 0.5 17.245C0.5 17.9593 0.807692 18.4695 1.32051 18.8777C2.14103 19.3879 4.08974 20.0001 7.88461 20.0001C11.6795 20.0001 13.5256 19.3879 14.4487 18.8777C14.4487 18.8777 14.5513 18.7756 14.6538 18.7756C15.0641 18.4695 15.3718 17.9593 15.3718 17.245C15.2692 14.5919 13.3205 12.347 10.6538 11.9389Z" fill="#464F54"/>
</svg>
