<svg width="20" height="20" viewBox="0 0 20 20" fill="none" xmlns="http://www.w3.org/2000/svg">
<path d="M13.5385 9.48985C15.7949 9.48985 17.641 7.65311 17.641 5.40821C17.641 3.16332 15.7949 1.32658 13.5385 1.32658C13.4359 1.32658 13.3334 1.32658 13.2308 1.32658C13.8462 2.34699 14.2564 3.57148 14.2564 4.79597C14.2564 6.53066 13.5385 8.16332 12.4103 9.38781C12.718 9.48985 13.1282 9.48985 13.5385 9.48985Z" fill="white"/>
<path d="M15.2821 11.6326H14.2565C15.7949 12.9591 16.8206 14.9999 16.8206 17.2448C16.8206 17.755 16.718 18.1632 16.6154 18.5713C17.9488 18.3672 18.7693 18.0611 19.2821 17.755C19.7949 17.4489 20.0001 16.9387 20.0001 16.3264C20.0001 13.7754 17.8462 11.6326 15.2821 11.6326Z" fill="white"/>
<path d="M7.38459 9.4898C8.61536 9.4898 9.641 9.08163 10.5641 8.26531C11.5897 7.44898 12.1025 6.12245 12.1025 4.79592C12.1025 3.77551 11.7948 2.7551 11.1795 2.04082C10.3589 0.816326 9.02562 0 7.38459 0C4.82049 0 2.66664 2.14286 2.66664 4.69388C2.66664 7.34694 4.82049 9.4898 7.38459 9.4898Z" fill="white"/>
<path d="M10.1538 11.9389C9.84615 11.9389 9.64103 11.8368 9.33333 11.8368H5.4359C2.46154 11.8368 0 14.2858 0 17.245C0 17.9593 0.307692 18.4695 0.820513 18.8777C1.64103 19.3879 3.58974 20.0001 7.38461 20.0001C11.1795 20.0001 13.0256 19.3879 13.9487 18.8777C13.9487 18.8777 14.0513 18.7756 14.1538 18.7756C14.5641 18.4695 14.8718 17.9593 14.8718 17.245C14.7692 14.5919 12.8205 12.347 10.1538 11.9389Z" fill="white"/>
</svg>
