<svg width="18" height="20" viewBox="0 0 18 20" fill="none" xmlns="http://www.w3.org/2000/svg">
<path d="M5.80645 0.750239C5.80645 0.335894 6.1964 0 6.67742 0H11.3226C11.8036 0 12.1935 0.335894 12.1935 0.750239V1.50048H17.129C17.6101 1.50048 18 1.83637 18 2.25072C18 2.66506 17.6101 3.00096 17.129 3.00096H0.870968C0.389946 3.00096 0 2.66506 0 2.25072C0 1.83637 0.389946 1.50048 0.870968 1.50048H5.80645V0.750239Z" fill="white"/>
<path fill-rule="evenodd" clip-rule="evenodd" d="M2.31085 5.6966C2.34352 5.44331 2.59207 5.25168 2.88794 5.25168H15.112C15.4079 5.25168 15.6565 5.44331 15.6891 5.6966L15.9216 7.49852C16.3405 10.7465 16.3405 14.0245 15.9216 17.2725L15.8987 17.4499C15.7461 18.6329 14.6817 19.5762 13.3133 19.7412C10.4517 20.0863 7.54826 20.0863 4.68667 19.7412C3.31824 19.5762 2.25389 18.6329 2.1013 17.4499L2.07841 17.2725C1.65945 14.0245 1.65945 10.7465 2.07841 7.49852L2.31085 5.6966ZM7.54839 9.15292C7.54839 8.73857 7.15844 8.40268 6.67742 8.40268C6.1964 8.40268 5.80645 8.73857 5.80645 9.15292L5.80645 16.1551C5.80645 16.5695 6.1964 16.9054 6.67742 16.9054C7.15844 16.9054 7.54839 16.5695 7.54839 16.1551L7.54839 9.15292ZM12.1935 9.15292C12.1935 8.73857 11.8036 8.40268 11.3226 8.40268C10.8416 8.40268 10.4516 8.73857 10.4516 9.15292V16.1551C10.4516 16.5695 10.8416 16.9054 11.3226 16.9054C11.8036 16.9054 12.1935 16.5695 12.1935 16.1551V9.15292Z" fill="white"/>
</svg>
