<svg width="24" height="24" viewBox="0 0 24 24" fill="none" xmlns="http://www.w3.org/2000/svg">
<path d="M23.9903 17.2572L22.3833 5.64542C22.3833 5.64528 22.3833 5.64524 22.3833 5.64514L21.9146 2.25804L22.2495 2.11929C22.7637 1.90629 23.0079 1.31684 22.7949 0.802523C22.5819 0.28835 21.9925 0.0441781 21.4782 0.257132L20.4239 0.69382C20.0001 0.86932 19.7483 1.30877 19.8112 1.76309L21.402 13.2577L12.8388 16.8046C12.5375 16.3829 12.1672 16.0217 11.7472 15.7331L18.4199 12.9692C18.8435 12.7937 19.0953 12.3542 19.0324 11.8999L17.82 3.13854C17.7772 2.8294 17.5936 2.55753 17.3228 2.40232C17.052 2.24698 16.7244 2.22612 16.4362 2.3456L0.621994 8.89593C0.333619 9.01537 0.116915 9.26169 0.0351179 9.56296C-0.046726 9.86423 0.0157585 10.1863 0.20415 10.4352L5.36027 17.2476C4.73275 18.3871 4.60792 19.7906 5.14324 21.0832C5.83174 22.7454 7.43932 23.8195 9.23853 23.8195C9.82104 23.8195 10.3911 23.7057 10.9329 23.4813C12.8699 22.679 13.9355 20.6527 13.6086 18.6675L21.6877 15.3211L21.9938 17.5336C22.0636 18.0381 22.4956 18.4033 22.9908 18.4033C23.0369 18.4033 23.0834 18.4001 23.1302 18.3936C23.6815 18.3174 24.0666 17.8086 23.9903 17.2572ZM10.1615 21.6192C9.86548 21.7418 9.55498 21.804 9.23848 21.804C8.25729 21.804 7.38082 21.2183 7.00535 20.312C6.49582 19.0817 7.08176 17.6665 8.31129 17.1563L8.31424 17.1551C8.60975 17.0329 8.91978 16.9709 9.23576 16.9709C10.2169 16.9709 11.0933 17.5566 11.4688 18.4629C11.9785 19.6936 11.392 21.1095 10.1615 21.6192Z" fill="white"/>
</svg>
